<?xml version="1.0" encoding="utf-8"?>
<!-- Generator: Adobe Illustrator 24.3.0, SVG Export Plug-In . SVG Version: 6.00 Build 0)  -->
<svg version="1.1" id="Layer_1" xmlns="http://www.w3.org/2000/svg" xmlns:xlink="http://www.w3.org/1999/xlink" x="0px" y="0px"
	 viewBox="0 0 796.54 203.81" style="enable-background:new 0 0 796.54 203.81;" xml:space="preserve">
<style type="text/css">
	.st0{fill:#FBB040;}
	.st1{fill:#004FFF;}
</style>
<g>
	<circle class="st0" cx="205.35" cy="94.75" r="18.01"/>
	<g>
		<path class="st1" d="M41.65,8.45v86.92c0,9.53,2.48,16.8,7.44,21.83c4.96,5.03,11.94,7.54,20.92,7.54
			c9.12,0,16.16-2.51,21.13-7.54c4.96-5.03,7.44-12.3,7.44-21.83V8.45h28.37v86.72c0,11.94-2.58,22.03-7.75,30.28
			c-5.17,8.25-12.07,14.46-20.72,18.61c-8.65,4.16-18.28,6.24-28.87,6.24c-10.46,0-19.95-2.08-28.47-6.24
			c-8.52-4.16-15.26-10.36-20.22-18.61c-4.96-8.25-7.44-18.34-7.44-30.28V8.45H41.65z"/>
		<path class="st1" d="M153.61,62.77c4.49-8.72,10.59-15.42,18.31-20.12c7.71-4.69,16.33-7.04,25.85-7.04
			c8.31,0,15.59,1.68,21.83,5.03c6.24,3.35,11.23,7.58,14.99,12.68V37.42h28.37v111.46h-28.37v-16.3
			c-3.62,5.23-8.62,9.56-14.99,12.98c-6.37,3.42-13.72,5.13-22.03,5.13c-9.39,0-17.94-2.41-25.65-7.24
			c-7.71-4.83-13.82-11.63-18.31-20.42c-4.5-8.78-6.74-18.88-6.74-30.28C146.87,81.48,149.12,71.49,153.61,62.77z M230.57,75.55
			c-2.69-4.89-6.31-8.65-10.86-11.27c-4.56-2.62-9.46-3.92-14.69-3.92s-10.06,1.28-14.49,3.82c-4.43,2.55-8.02,6.27-10.76,11.17
			c-2.75,4.9-4.12,10.7-4.12,17.4c0,6.71,1.37,12.57,4.12,17.6c2.75,5.03,6.37,8.89,10.86,11.57c4.49,2.69,9.29,4.02,14.39,4.02
			c5.23,0,10.13-1.31,14.69-3.92c4.56-2.62,8.18-6.37,10.86-11.27c2.68-4.89,4.02-10.76,4.02-17.6S233.25,80.45,230.57,75.55z"/>
		<path class="st1" d="M384.49,48.39c8.18,8.38,12.27,20.09,12.27,35.11v65.39h-28.17V87.32c0-8.85-2.21-15.66-6.64-20.42
			c-4.43-4.76-10.46-7.14-18.11-7.14c-7.78,0-13.92,2.38-18.41,7.14c-4.5,4.76-6.74,11.57-6.74,20.42v61.57h-28.17V37.42h28.17V51.3
			c3.75-4.83,8.55-8.62,14.39-11.37c5.83-2.75,12.24-4.12,19.21-4.12C365.57,35.81,376.3,40.01,384.49,48.39z"/>
		<path class="st1" d="M489.11,40.54c6.3,3.29,11.27,7.54,14.89,12.78V37.42h28.37v112.27c0,10.33-2.08,19.55-6.24,27.67
			c-4.16,8.11-10.4,14.55-18.71,19.31c-8.32,4.76-18.38,7.14-30.18,7.14c-15.83,0-28.81-3.69-38.93-11.07
			c-10.13-7.38-15.86-17.44-17.2-30.18h27.97c1.47,5.1,4.66,9.15,9.56,12.17c4.9,3.02,10.83,4.53,17.81,4.53
			c8.18,0,14.82-2.45,19.92-7.34c5.1-4.9,7.65-12.31,7.65-22.23v-17.3c-3.62,5.23-8.62,9.59-14.99,13.08
			c-6.37,3.49-13.65,5.23-21.83,5.23c-9.39,0-17.98-2.41-25.75-7.24c-7.78-4.83-13.92-11.63-18.41-20.42
			c-4.5-8.78-6.74-18.88-6.74-30.28c0-11.27,2.24-21.26,6.74-29.98c4.49-8.72,10.59-15.42,18.31-20.12
			c7.71-4.69,16.33-7.04,25.85-7.04C475.49,35.61,482.8,37.25,489.11,40.54z M499.97,75.55c-2.68-4.89-6.31-8.65-10.87-11.27
			c-4.56-2.62-9.46-3.92-14.69-3.92c-5.23,0-10.06,1.28-14.49,3.82c-4.43,2.55-8.02,6.27-10.76,11.17c-2.75,4.9-4.12,10.7-4.12,17.4
			c0,6.71,1.37,12.57,4.12,17.6c2.75,5.03,6.37,8.89,10.87,11.57c4.49,2.69,9.29,4.02,14.38,4.02c5.23,0,10.13-1.31,14.69-3.92
			c4.56-2.62,8.18-6.37,10.87-11.27c2.68-4.89,4.02-10.76,4.02-17.6S502.65,80.45,499.97,75.55z"/>
		<path class="st1" d="M625.92,148.88L588.1,101.4v47.48h-28.17V0h28.17v84.7l37.42-47.28h36.62l-49.09,55.93l49.49,55.53H625.92z"
			/>
		<path class="st1" d="M782.65,37.42v111.46h-28.37V134.8c-3.62,4.83-8.35,8.62-14.18,11.37c-5.83,2.75-12.17,4.12-19.01,4.12
			c-8.72,0-16.43-1.84-23.14-5.53c-6.71-3.69-11.97-9.12-15.79-16.3c-3.82-7.17-5.73-15.72-5.73-25.65V37.42h28.17v61.36
			c0,8.85,2.21,15.66,6.64,20.42c4.43,4.76,10.46,7.14,18.11,7.14c7.78,0,13.88-2.38,18.31-7.14c4.43-4.76,6.64-11.57,6.64-20.42
			V37.42H782.65z"/>
	</g>
	<polygon class="st0" points="326.13,126.56 343.18,149.83 360.22,126.56 343.18,96.97 	"/>
	<circle class="st0" cx="475.19" cy="94.75" r="18.01"/>
	<path class="st1" d="M438.42,50.38c-6.96,4.02,7.17-12.58,32.79-16.66c8.93-1.42,18.02-1.38,27.06-1.65
		c9.04-0.27,18.21-0.96,26.72-4.01c8.52-3.05,16.42-8.72,20.45-16.81c-3.55,8.48-7.1,16.96-10.65,25.43
		c-1.72,4.11-3.51,8.32-6.54,11.59C523.87,53,517.2,55.25,510.76,55c-6.44-0.25-9.69-1.79-15-5.44
		C495.76,49.55,479.35,26.74,438.42,50.38z"/>
	<path class="st1" d="M228.11,48.75c6.67,3.85-6.88-12.06-31.42-15.97c-8.56-1.36-17.27-1.33-25.93-1.58
		c-8.66-0.26-17.45-0.92-25.61-3.84s-15.74-8.35-19.6-16.11c3.4,8.12,6.81,16.25,10.21,24.37c1.65,3.94,3.36,7.97,6.26,11.11
		c4.2,4.53,10.59,6.68,16.77,6.44c6.17-0.24,9.29-1.71,14.38-5.21C173.16,47.96,188.89,26.1,228.11,48.75z"/>
</g>
</svg>
