<svg id="Layer_1" data-name="Layer 1" xmlns="http://www.w3.org/2000/svg" viewBox="0 0 796.54 203.81"><defs><style>.cls-1{fill:#fbb040;}.cls-2{fill:#fff;}</style></defs><circle class="cls-1" cx="205.35" cy="94.75" r="18.01"/><path class="cls-2" d="M41.65,8.45V95.37q0,14.3,7.44,21.83T70,124.74q13.68,0,21.13-7.54t7.44-21.83V8.45H127V95.17q0,17.91-7.75,30.28a49.1,49.1,0,0,1-20.72,18.61,65.77,65.77,0,0,1-28.87,6.24,64,64,0,0,1-28.47-6.24,47.46,47.46,0,0,1-20.22-18.61q-7.44-12.37-7.44-30.28V8.45Z"/><path class="cls-2" d="M153.61,62.77a49.35,49.35,0,0,1,18.31-20.12,48.77,48.77,0,0,1,25.85-7,45.48,45.48,0,0,1,21.83,5,44.25,44.25,0,0,1,15,12.68V37.42H263V148.88H234.59v-16.3a41.91,41.91,0,0,1-15,13,45.87,45.87,0,0,1-22,5.13,47.34,47.34,0,0,1-25.65-7.24A50.66,50.66,0,0,1,153.61,123q-6.75-13.17-6.74-30.28Q146.87,75.85,153.61,62.77Zm77,12.78a28.55,28.55,0,0,0-10.86-11.27A29,29,0,0,0,205,60.36a28.26,28.26,0,0,0-25.25,15,35,35,0,0,0-4.12,17.4,36.1,36.1,0,0,0,4.12,17.6,29.7,29.7,0,0,0,10.86,11.57,27.53,27.53,0,0,0,14.39,4A29.1,29.1,0,0,0,219.71,122a28.36,28.36,0,0,0,10.86-11.27q4-7.34,4-17.6T230.57,75.55Z"/><path class="cls-2" d="M384.49,48.39Q396.76,61,396.76,83.5v65.39H368.59V87.32Q368.59,74,362,66.9t-18.11-7.14q-11.67,0-18.41,7.14t-6.74,20.42v61.57H290.52V37.42h28.17V51.3a38.84,38.84,0,0,1,14.39-11.37,44.48,44.48,0,0,1,19.21-4.12Q372.21,35.81,384.49,48.39Z"/><path class="cls-2" d="M489.11,40.54A40.37,40.37,0,0,1,504,53.32V37.42h28.37V149.69a59.81,59.81,0,0,1-6.24,27.67,46.36,46.36,0,0,1-18.71,19.31q-12.48,7.14-30.18,7.14-23.75,0-38.93-11.07t-17.2-30.18h28a20.78,20.78,0,0,0,9.56,12.17q7.35,4.53,17.81,4.53,12.27,0,19.92-7.34T504,149.69v-17.3a42.83,42.83,0,0,1-15,13.08,44.69,44.69,0,0,1-21.83,5.23,47.82,47.82,0,0,1-25.75-7.24A50.39,50.39,0,0,1,423,123q-6.75-13.17-6.74-30.28,0-16.91,6.74-30a49.35,49.35,0,0,1,18.31-20.12,48.77,48.77,0,0,1,25.85-7A46.62,46.62,0,0,1,489.11,40.54Zm10.86,35A28.44,28.44,0,0,0,489.1,64.28a29,29,0,0,0-14.69-3.92,28.26,28.26,0,0,0-25.25,15A35,35,0,0,0,445,92.75a36.1,36.1,0,0,0,4.12,17.6A29.65,29.65,0,0,0,460,121.92a27.52,27.52,0,0,0,14.38,4A29.1,29.1,0,0,0,489.1,122,28.45,28.45,0,0,0,500,110.75q4-7.34,4-17.6T500,75.55Z"/><path class="cls-2" d="M625.92,148.88,588.1,101.4v47.48H559.93V0H588.1V84.7l37.42-47.28h36.62L613.05,93.35l49.49,55.53Z"/><path class="cls-2" d="M782.65,37.42V148.88H754.28V134.8a37.19,37.19,0,0,1-14.18,11.37,44,44,0,0,1-19,4.12A47.22,47.22,0,0,1,698,144.76a39,39,0,0,1-15.79-16.3q-5.73-10.75-5.73-25.65V37.42H704.6V98.78q0,13.27,6.64,20.42t18.11,7.14q11.67,0,18.31-7.14t6.64-20.42V37.42Z"/><polygon class="cls-1" points="326.13 126.56 343.18 149.83 360.22 126.56 343.18 96.97 326.13 126.56"/><circle class="cls-1" cx="475.19" cy="94.75" r="18.01"/><path class="cls-2" d="M438.42,50.38c-7,4,7.17-12.58,32.79-16.66,8.93-1.42,18-1.38,27.06-1.65s18.21-1,26.72-4,16.42-8.72,20.45-16.81L534.79,36.68c-1.72,4.11-3.51,8.32-6.54,11.59-4.38,4.73-11,7-17.49,6.73s-9.69-1.79-15-5.44C495.76,49.55,479.35,26.74,438.42,50.38Z"/><path class="cls-2" d="M228.11,48.75c6.67,3.85-6.88-12.06-31.42-16-8.56-1.36-17.27-1.33-25.93-1.58s-17.45-.92-25.61-3.84S129.41,19,125.55,11.25l10.21,24.37c1.65,3.94,3.36,8,6.26,11.11,4.2,4.53,10.59,6.68,16.77,6.44s9.29-1.71,14.38-5.21C173.16,48,188.89,26.1,228.11,48.75Z"/></svg>