<?xml version="1.0" encoding="utf-8"?>
<!-- Generator: Adobe Illustrator 24.3.0, SVG Export Plug-In . SVG Version: 6.00 Build 0)  -->
<svg version="1.1" id="Layer_1" xmlns="http://www.w3.org/2000/svg" xmlns:xlink="http://www.w3.org/1999/xlink" x="0px" y="0px"
	 viewBox="0 0 500 500" style="enable-background:new 0 0 500 500;" xml:space="preserve">
<style type="text/css">
	.st0{fill:#2E55C6;}
	.st1{fill:#508D4F;}
	.st2{fill:none;stroke:#255123;stroke-width:0.75;stroke-linecap:round;stroke-miterlimit:10;}
	.st3{fill:#366B34;}
	.st4{fill:#ECD4AE;}
	.st5{fill:#6F9AFB;}
	.st6{fill:#FFFFFF;}
	.st7{fill:#EEF6FF;}
	.st8{fill:#DD4A2B;}
	.st9{fill:#E49723;}
	.st10{fill:#DCEAFF;}
	.st11{fill:#B0200C;}
	.st12{fill:none;stroke:#B0200C;stroke-miterlimit:10;}
	.st13{fill:#C47712;}
	.st14{fill:none;stroke:#C47712;stroke-miterlimit:10;}
	.st15{fill:#F4A595;}
	.st16{fill:#22201A;}
	.st17{fill:#56545E;}
	.st18{fill:none;stroke:#3B3A42;stroke-width:0.5554;stroke-miterlimit:10;}
	.st19{fill:#CE6F5D;}
	.st20{fill:none;stroke:#1B429B;stroke-miterlimit:10;}
	.st21{fill:#D3AF81;}
	.st22{fill:#F5E5C9;}
	.st23{fill:none;stroke:#F5E5C9;stroke-width:2;stroke-miterlimit:10;}
	.st24{fill:none;stroke:#DD4A2B;stroke-width:5;stroke-miterlimit:10;}
	.st25{fill:none;stroke:#FFFFFF;stroke-width:2.7893;stroke-miterlimit:10;}
	.st26{fill:#954F1C;}
	.st27{fill:#E6907A;}
	.st28{fill:none;stroke:#3B3A42;stroke-width:1.0629;stroke-miterlimit:10;}
	.st29{fill:#9E5446;}
	.st30{fill:none;stroke:#1B429B;stroke-width:4;stroke-miterlimit:10;}
	.st31{fill:none;stroke:#2E55C6;stroke-width:6.0002;stroke-miterlimit:10.0003;}
	.st32{fill:none;stroke:#6F9AFB;stroke-width:2;stroke-miterlimit:10;}
	.st33{opacity:0.3;fill:#FFFFFF;enable-background:new    ;}
	.st34{opacity:0.5;fill:#E5E2DF;enable-background:new    ;}
	.st35{fill:#873D33;}
	.st36{fill:none;stroke:#22201A;stroke-width:0.6569;stroke-miterlimit:10;}
	.st37{fill:none;}
	.st38{fill:none;stroke:#FFFFFF;stroke-width:1.5;stroke-miterlimit:10;}
	.st39{fill:#F4AA4A;}
	.st40{fill:#CE7C11;}
	.st41{clip-path:url(#SVGID_2_);}
	.st42{fill:#F9B569;}
	.st43{font-family:'Montserrat-Black';}
	.st44{font-size:22.0573px;}
	.st45{letter-spacing:1;}
</style>
<g id="OBJECTS">
	<path class="st0" d="M248.3,417.6c104.9,5,235.5-48,219.4-148.8S345,203.4,386,143.5s-8.6-97.4-168.9-50.8
		C56.8,139.3,19.6,231.1,40.4,312.7S160.1,413.4,248.3,417.6z"/>
	<g>
		<g>
			<path class="st1" d="M481.4,406.8h-114c0,0,1.1-11.2,6.5-24.5l13.7,3.4l-11.5-8.6c2-4.1,4.4-8.3,7.2-12.4l4.9,2.8l-3.8-4.4
				c6.4-8.4,15-15.8,26.7-20l11.7,16.7l-1.8-19.3c2-0.4,4-0.6,6.1-0.8l2.4,11.3v-11.5c7.6-0.3,14.1,0.9,19.6,3.1l-4.5,17.8l14-12.2
				c3.6,2.9,6.7,6.3,9.3,10l-9.7,11.6l11.2-9.3c2.7,4.4,4.8,9.2,6.4,13.9l-14.4,12.1l16.6-4.6C481.6,395.5,481.4,406.8,481.4,406.8z
				"/>
			<line class="st2" x1="404.2" y1="349" x2="431.8" y2="406.8"/>
			<line class="st2" x1="374.7" y1="389.2" x2="431.3" y2="405.8"/>
			<line class="st2" x1="438.1" y1="343.7" x2="432.6" y2="405.8"/>
			<line class="st2" x1="467.7" y1="367.6" x2="434.2" y2="405.8"/>
			<line class="st2" x1="397" y1="374.8" x2="427.3" y2="402.3"/>
			<line class="st2" x1="425.7" y1="369.7" x2="431.3" y2="398.2"/>
		</g>
		<g>
			<path class="st1" d="M288,257.5H174c0,0,1.1-11.2,6.5-24.5l13.7,3.4l-11.4-8.6c2-4.1,4.4-8.3,7.2-12.4l4.9,2.8l-3.8-4.4
				c6.4-8.4,15-15.8,26.7-20l11.7,16.7l-1.8-19.3c2-0.4,4-0.6,6.1-0.8l2.4,11.3v-11.5c7.6-0.3,14.1,0.9,19.6,3.1l-4.5,17.8l14-12.2
				c3.6,2.9,6.7,6.3,9.3,10.1l-9.7,11.6l11.2-9.3c2.7,4.4,4.8,9.2,6.4,13.9l-14.4,12.1l16.6-4.6C288.1,246.2,288,257.5,288,257.5z"
				/>
			<line class="st2" x1="210.8" y1="199.7" x2="238.4" y2="257.5"/>
			<line class="st2" x1="181.3" y1="240" x2="237.9" y2="256.5"/>
			<line class="st2" x1="244.7" y1="194.5" x2="239.2" y2="256.5"/>
			<line class="st2" x1="274.3" y1="218.3" x2="240.8" y2="256.5"/>
			<line class="st2" x1="203.6" y1="225.5" x2="233.9" y2="253"/>
			<line class="st2" x1="232.3" y1="220.4" x2="237.9" y2="248.9"/>
		</g>
		<g>
			<path class="st3" d="M367.1,348.4l30-0.6c19-15.8,33.7-31.2,44.8-45l-10.6-6.2l12.9,3.3c5.8-7.5,10.7-14.4,14.6-20.7
				c-2.4-2-5.4-4.3-8.7-6.4c0,0,5.6,0.8,11.7,1.4c3-5.2,5.5-9.8,7.4-13.9l-7.9-2.9l9.4-0.3c4-8.9,5.3-14.1,5.3-14.1
				C412.5,271.3,367.1,348.4,367.1,348.4z"/>
			<path class="st2" d="M469.2,249.7c0,0-50.7,29.4-97.6,99.3"/>
		</g>
		<g>
			<path class="st3" d="M161.2,276.1l-30-0.6c-19.1-15.8-33.7-31.2-44.8-45l10.6-6.2l-12.9,3.3c-5.8-7.4-10.7-14.4-14.7-20.7
				c2.4-2,5.4-4.3,8.7-6.4c0,0-5.6,0.8-11.7,1.4c-3-5.2-5.5-9.8-7.4-13.9l7.9-2.9l-9.4-0.3c-4-8.9-5.3-14.1-5.3-14.1
				C115.8,199,161.2,276.1,161.2,276.1z"/>
			<path class="st2" d="M59.1,177.4c0,0,50.7,29.4,97.6,99.3"/>
		</g>
		<g>
			<path class="st1" d="M308.9,305.8c0,0,41.3-32.5,52.4-76.6s10.2-61.8,10.2-61.8S307.6,215.9,308.9,305.8z"/>
			<g>
				<path class="st2" d="M363.4,188.9c0,0-34.2,55.8-47.5,103.2"/>
				<line class="st2" x1="349.8" y1="196" x2="346" y2="220.1"/>
				<line class="st2" x1="328.3" y1="230.7" x2="326.1" y2="262.8"/>
				<line class="st2" x1="322.5" y1="272.2" x2="341.8" y2="255.1"/>
				<line class="st2" x1="339.8" y1="232" x2="358.8" y2="218.7"/>
			</g>
		</g>
		<g>
			<path class="st1" d="M127.9,347.8c0,0-50.3-15.4-76.5-52.5s-31.8-53.9-31.8-53.9S96.6,263.4,127.9,347.8z"/>
			<g>
				<path class="st2" d="M34.8,258.5c0,0,52.1,39.7,81.6,79"/>
				<line class="st2" x1="50.1" y1="260.1" x2="62.3" y2="281.3"/>
				<line class="st2" x1="82.7" y1="284.7" x2="96.3" y2="313.9"/>
				<line class="st2" x1="103.1" y1="321.3" x2="78.8" y2="312.3"/>
				<line class="st2" x1="72.4" y1="290.1" x2="49.9" y2="284.5"/>
			</g>
		</g>
		<g>
			<path class="st1" d="M163.8,412.4H29.3c0,0,1.4-13.2,7.7-28.9l16.2,4l-13.5-10.1c2.3-4.9,5.1-9.8,8.5-14.6L54,366l-4.4-5.1
				C57,351,67.2,342.3,81,337.3L94.9,357l-2.2-22.7c2.3-0.4,4.7-0.7,7.2-0.9l2.8,13.4v-13.5c9-0.4,16.6,1,23.2,3.7l-5.3,21
				l16.5-14.4c4.3,3.4,7.9,7.5,11,11.9L136.7,369l13.2-11c3.2,5.2,5.7,10.8,7.6,16.4l-17,14.3l19.6-5.5
				C163.9,398.9,163.8,412.4,163.8,412.4z"/>
			<line class="st2" x1="72.7" y1="344.1" x2="105.2" y2="412.3"/>
			<line class="st2" x1="37.9" y1="391.6" x2="104.7" y2="411.2"/>
			<line class="st2" x1="112.7" y1="337.9" x2="106.2" y2="411.2"/>
			<line class="st2" x1="147.6" y1="366" x2="108" y2="411.2"/>
			<line class="st2" x1="64.2" y1="374.6" x2="100" y2="407"/>
			<line class="st2" x1="98.1" y1="368.6" x2="104.7" y2="402.2"/>
		</g>
	</g>
	<ellipse class="st4" cx="260.1" cy="413.4" rx="235.8" ry="26.1"/>
	<g>
		<path class="st0" d="M213.3,395.7H93.8c-5.4,0-9.7-4.4-9.7-9.7V152c0-5.4,4.3-9.7,9.7-9.7h119.5c5.4,0,9.7,4.4,9.7,9.7v234
			C223,391.3,218.7,395.7,213.3,395.7z"/>
		<path class="st5" d="M209.7,395.7H90.2c-5.4,0-9.7-4.4-9.7-9.7V152c0-5.4,4.3-9.7,9.7-9.7h119.5c5.4,0,9.7,4.4,9.7,9.7v234
			C219.4,391.3,215.1,395.7,209.7,395.7z"/>
		<path class="st6" d="M204.4,381.2H95.5c-4,0-7.2-3.2-7.2-7.2V156.7c0-4,3.2-7.2,7.2-7.2h108.9c4,0,7.2,3.2,7.2,7.2v217.2
			C211.6,377.9,208.4,381.2,204.4,381.2z"/>
		<path class="st7" d="M191.1,368.4h-82.3c-3.3,0-6-2.7-6-6V168.2c0-3.3,2.7-6,6-6h82.3c3.3,0,6,2.7,6,6v194.2
			C197.1,365.7,194.4,368.4,191.1,368.4z"/>
		<path class="st8" d="M180,259h-60.1c-1.8,0-3.3-1.5-3.3-3.3v-12c0-1.8,1.5-3.3,3.3-3.3H180c1.8,0,3.3,1.5,3.3,3.3v12
			C183.3,257.5,181.8,259,180,259z"/>
		<g>
			<path class="st6" d="M132.4,246.5c0.4,0.2,0.8,0.5,1,0.9c0.2,0.4,0.4,0.8,0.4,1.3s-0.1,0.9-0.4,1.3s-0.6,0.7-1,0.9
				s-1,0.3-1.6,0.3h-0.9v1.6h-2.2v-6.6h3.2C131.4,246.2,131.9,246.3,132.4,246.5z M131.3,249.2c0.1-0.1,0.2-0.3,0.2-0.6
				s-0.1-0.4-0.2-0.6c-0.1-0.1-0.4-0.2-0.7-0.2h-0.8v1.5h0.8C131,249.4,131.2,249.3,131.3,249.2z"/>
			<path class="st6" d="M139.6,251.6h-2.5l-0.4,1.1h-2.2l2.9-6.6h2.2l2.9,6.6H140L139.6,251.6z M139,250l-0.6-1.6l-0.6,1.6H139z"/>
			<path class="st6" d="M147.1,250.3v2.4h-2.2v-2.4l-2.5-4.1h2.3l1.3,2.3l1.4-2.3h2.1L147.1,250.3z"/>
			<path class="st6" d="M150.8,246.2h3.2c0.7,0,1.4,0.1,1.9,0.4c0.6,0.3,1,0.6,1.3,1.1c0.3,0.5,0.5,1.1,0.5,1.7s-0.1,1.2-0.5,1.7
				c-0.3,0.5-0.7,0.9-1.3,1.1c-0.6,0.3-1.2,0.4-1.9,0.4h-3.2V246.2z M153.9,251c0.5,0,0.9-0.1,1.1-0.4c0.3-0.3,0.4-0.6,0.4-1.1
				c0-0.5-0.1-0.9-0.4-1.1c-0.3-0.3-0.7-0.4-1.1-0.4H153v3.1L153.9,251L153.9,251z"/>
			<path class="st6" d="M163.8,251.6h-2.5l-0.4,1.1h-2.2l2.9-6.6h2.2l2.9,6.6h-2.3L163.8,251.6z M163.2,250l-0.6-1.6l-0.6,1.6H163.2
				z"/>
			<path class="st6" d="M171.3,250.3v2.4H169v-2.4l-2.5-4.1h2.3l1.3,2.3l1.4-2.3h2.1L171.3,250.3z"/>
		</g>
		<g>
			<ellipse class="st9" cx="149.9" cy="205.5" rx="20.3" ry="20.3"/>
		</g>
		<g>
			<path class="st6" d="M157.4,213.4c-1.1,1.1-2.6,1.9-4.6,2.2v3h-3.8v-2.8c-1.3-0.1-2.6-0.3-3.8-0.6s-2.2-0.8-3-1.3l2-4.6
				c0.9,0.5,1.9,0.9,3,1.2c1.1,0.3,2.2,0.5,3.2,0.5c0.9,0,1.5-0.1,1.9-0.2c0.4-0.2,0.6-0.4,0.6-0.8c0-0.4-0.2-0.7-0.7-0.9
				c-0.5-0.2-1.3-0.4-2.4-0.6c-1.4-0.3-2.6-0.6-3.6-1c-1-0.4-1.8-0.9-2.5-1.7c-0.7-0.8-1.1-1.9-1.1-3.2c0-1.6,0.6-2.9,1.7-4
				c1.1-1.1,2.8-1.8,4.9-2.1v-2.9h3.8v2.9c2.1,0.2,3.9,0.7,5.4,1.6l-1.9,4.6c-1.8-0.9-3.6-1.4-5.2-1.4c-1.6,0-2.4,0.4-2.4,1.2
				c0,0.4,0.2,0.7,0.7,0.8c0.5,0.2,1.3,0.4,2.4,0.6c1.4,0.3,2.6,0.6,3.6,0.9c1,0.4,1.8,0.9,2.6,1.7c0.7,0.8,1.1,1.9,1.1,3.2
				C159.1,211,158.5,212.3,157.4,213.4z"/>
		</g>
		<g>
			<rect x="113.4" y="276.2" class="st10" width="27.6" height="22"/>
			<rect x="147.5" y="276.2" class="st10" width="38.2" height="3.6"/>
			<rect x="147.5" y="283.5" class="st10" width="38.2" height="3.6"/>
			<rect x="147.5" y="290.9" class="st10" width="19.1" height="3.6"/>
			<rect x="113.4" y="303" class="st10" width="27.6" height="22"/>
			<rect x="147.5" y="303" class="st10" width="38.2" height="3.6"/>
			<rect x="147.5" y="310.3" class="st10" width="38.2" height="3.6"/>
			<rect x="147.5" y="317.7" class="st10" width="19.1" height="3.6"/>
			<rect x="113.4" y="329.8" class="st10" width="27.6" height="22"/>
			<rect x="147.5" y="329.8" class="st10" width="38.2" height="3.6"/>
			<rect x="147.5" y="337.1" class="st10" width="38.2" height="3.6"/>
			<rect x="147.5" y="344.5" class="st10" width="19.1" height="3.6"/>
		</g>
		<path class="st5" d="M171.3,156.5h-43c-1.9,0-3.4-1.5-3.4-3.4v-3.5c0-1.9,1.5-3.4,3.4-3.4h43c1.9,0,3.4,1.5,3.4,3.4v3.5
			C174.7,155,173.2,156.5,171.3,156.5z"/>
	</g>
	<g>
		<path class="st11" d="M127.6,409h112.1c5.4,0,9.9-4.4,9.9-9.9v-61.5c0-5.5-4.4-9.9-9.9-9.9H127.6c-5.4,0-9.9,4.4-9.9,9.9v61.5
			C117.7,404.6,122.1,409,127.6,409z"/>
		<rect x="128" y="337.2" class="st8" width="59.6" height="5.5"/>
		<rect x="128" y="390.1" class="st8" width="59.6" height="1.7"/>
		<rect x="128" y="393.9" class="st8" width="59.6" height="1.7"/>
		<rect x="128" y="397.8" class="st8" width="29.3" height="1.7"/>
		<g>
			<path class="st9" d="M152.1,369h-21.3c-1.6,0-2.8-1.3-2.8-2.8v-11.8c0-1.6,1.3-2.8,2.8-2.8h21.3c1.6,0,2.8,1.3,2.8,2.8v11.8
				C154.9,367.7,153.6,369,152.1,369z"/>
			<polyline class="st12" points="141.4,349 146,357.7 157.8,357.7 			"/>
			<polyline class="st12" points="125.1,360.2 137.7,360.2 141.8,369.4 			"/>
			<polyline class="st12" points="137.3,350.1 144.6,363.5 156.4,369.4 			"/>
		</g>
		<g>
			<g>
				<rect x="128" y="376.6" class="st8" width="2.7" height="7.2"/>
				<rect x="134.2" y="376.6" class="st8" width="2.7" height="7.2"/>
				<rect x="140.5" y="376.6" class="st8" width="2.7" height="7.2"/>
				<rect x="146.8" y="376.6" class="st8" width="2.7" height="7.2"/>
			</g>
			<g>
				<rect x="157.8" y="376.6" class="st8" width="2.7" height="7.2"/>
				<rect x="164" y="376.6" class="st8" width="2.7" height="7.2"/>
				<rect x="170.3" y="376.6" class="st8" width="2.7" height="7.2"/>
				<rect x="176.6" y="376.6" class="st8" width="2.7" height="7.2"/>
			</g>
			<g>
				<rect x="187.5" y="376.6" class="st8" width="2.7" height="7.2"/>
				<rect x="193.8" y="376.6" class="st8" width="2.7" height="7.2"/>
				<rect x="200.1" y="376.6" class="st8" width="2.7" height="7.2"/>
				<rect x="206.4" y="376.6" class="st8" width="2.7" height="7.2"/>
			</g>
		</g>
	</g>
	<g>
		<g>
			<g>
				<path class="st9" d="M90.3,401.5l13.1-0.5c0,0,12.3,5,11.9,8.7c-0.4,3.7-25.1,3-26.2,2C88,410.8,90.3,401.5,90.3,401.5z"/>
				<path class="st13" d="M89.1,411.2c7.5,0.7,10.1,0.5,15.4,0.2c5.6-0.4,6.1-0.7,10.9-1.8c1.1-0.2,1.7,2.5,0.6,2.8
					c-4.8,1.4-8.2,1.6-13,2.1c-6.5,0.6-10.8,0.5-14.4-0.2C87.2,414,87.8,411.1,89.1,411.2z"/>
			</g>
			<path class="st14" d="M97.3,402.4c0,0-2.1,2.4,3.1,6.3c5.2,3.9,11.7,2.4,11.7,2.4"/>
			<g>
				<path class="st6" d="M112.2,407.4c0.6-1.1,0.3-3.5-1.3-3.7c-0.2,0-0.4,0.2-0.3,0.4c0.1,0.5,0.4,1,0.5,1.5c0.1,0.5,0,1-0.1,1.5
					C111,407.7,111.9,408,112.2,407.4z"/>
				<path class="st6" d="M109.8,406.4c0.6-1.1,0.3-3.5-1.3-3.7c-0.2,0-0.4,0.2-0.3,0.4c0.1,0.5,0.4,1,0.5,1.5c0.1,0.5,0,1-0.1,1.5
					C108.6,406.6,109.5,406.9,109.8,406.4z"/>
				<path class="st6" d="M107.1,405.4c0.6-1.1,0.3-3.5-1.3-3.7c-0.2,0-0.4,0.2-0.3,0.4c0.1,0.5,0.4,1,0.5,1.5c0.1,0.5,0,1-0.1,1.5
					C105.9,405.6,106.8,405.9,107.1,405.4z"/>
			</g>
		</g>
		<g>
			<g>
				<path class="st9" d="M61.4,402.2l13.1-0.5c0,0,12.3,5,11.9,8.7c-0.4,3.7-25.1,3-26.2,2C59,411.5,61.4,402.2,61.4,402.2z"/>
				<path class="st13" d="M60.1,412c7.5,0.7,10.1,0.5,15.4,0.2c5.6-0.4,6.1-0.7,10.9-1.8c1.1-0.2,1.7,2.5,0.6,2.8
					c-4.8,1.4-8.2,1.6-13,2.1c-6.5,0.6-10.8,0.5-14.4-0.2C58.3,414.8,58.8,411.8,60.1,412z"/>
			</g>
			<path class="st14" d="M68.4,403.1c0,0-2.1,2.4,3.1,6.3c5.2,3.9,11.7,2.4,11.7,2.4"/>
			<g>
				<path class="st6" d="M83.2,408.2c0.6-1.1,0.3-3.5-1.3-3.7c-0.2,0-0.4,0.2-0.3,0.4c0.1,0.5,0.4,1,0.5,1.5c0.1,0.5,0,1-0.1,1.5
					C82.1,408.4,83,408.7,83.2,408.2z"/>
				<path class="st6" d="M80.8,407.1c0.6-1.1,0.3-3.5-1.3-3.7c-0.2,0-0.4,0.2-0.3,0.4c0.1,0.5,0.4,1,0.5,1.5c0.1,0.5,0,1-0.1,1.5
					C79.7,407.3,80.6,407.7,80.8,407.1z"/>
				<path class="st6" d="M78.2,406.1c0.6-1.1,0.3-3.5-1.3-3.7c-0.2,0-0.4,0.2-0.3,0.4c0.1,0.5,0.4,1,0.5,1.5c0.1,0.5,0,1-0.1,1.5
					C77,406.4,77.9,406.7,78.2,406.1z"/>
			</g>
		</g>
		<g>
			<path class="st15" d="M66.8,293.9c0,0,0.8,5.7,1.4,6.5c0.6,0.8,6.2,6.4,5.5,7.9s-5.1-2.4-5.4-2c-0.2,0.3-0.9,9.7-1.7,11.1
				s-1.7,0.4-1.7,0.4s-0.2,1.9-1.1,2.2c-1,0.3-1.3-1.5-1.3-1.5s-1.2,1.9-1.9,0.7c-0.8-1.2-1.1-5.9-1.5-5.5c-0.4,0.4,0.7,2.4,0,3.2
				c-0.7,0.8-2.1-0.3-2-5.2c0-5-0.4-1.4,1.2-6.9s1.2-9.8,1.2-9.8L66.8,293.9z"/>
			<polygon class="st6" points="57.8,296 57.8,299.2 68.5,301 68.8,297.5 			"/>
			<path class="st0" d="M69.6,298.4c0,0-11.7-1.2-13.6-2c-1.5-0.6,1.8-60.3,24.9-60.9l3,15.1C80.3,256,69.6,298.4,69.6,298.4z"/>
			<g>
				<path class="st16" d="M64.9,311.1c0,2.2,0,4.3,0,6.5c0.1,0,0.2,0,0.2,0c0.3-2.1,0.3-4.4,0-6.5C65.1,310.9,64.9,310.9,64.9,311.1
					z"/>
				<path class="st16" d="M62.5,312c0,2.1,0,4.3,0,6.5c0.1,0,0.1,0,0.2,0c0.3-2.1,0.3-4.4,0-6.5C62.7,311.9,62.5,311.9,62.5,312z"/>
				<path class="st16" d="M59.1,311.4c-0.2,2.3-0.2,2,0.2,4c0.1,0,0.2,0.1,0.2,0.1c-0.2-2.2-0.1-1.9-0.3-4.1
					C59.3,311.3,59.1,311.3,59.1,311.4z"/>
			</g>
			<path class="st16" d="M66,308.4c0,0-2.3-0.3-4.4-3"/>
		</g>
		<path class="st17" d="M108.3,299.5c0,0,3.2,25.2,2.9,42.6c-0.2,17.4-2.8,60.6-2.8,60.6H89l-4.7-65.1l-4.8,65.9l-19.5-0.3
			c0,0-4.5-77.1,3.5-103.5L108.3,299.5z"/>
		<g>
			<path class="st18" d="M64.9,303.9c0,0-3.8,66.5,0,99.3"/>
			<path class="st18" d="M104.5,303.2c0,0,3,58.9-1.1,97.8"/>
			<path class="st18" d="M81.1,327.5c0,0-0.8,6.8,3.2,10"/>
			<polygon class="st18" points="68.2,307 68.2,316.2 72.9,320 77.5,316.4 78.1,307 			"/>
			<polygon class="st18" points="88.1,307.8 88.1,317 92.7,320.8 97.4,317.2 97.9,307.8 			"/>
		</g>
		<g>
			<path class="st15" d="M85.8,227.2c0.4,2.5,0.9,9.3,1.5,11.2c0.3,1.1,7.8,5.3,10.6,5.3c4.8,0,0.2-5.1,0.3-6c0-0.1,0-0.1,0-0.1
				c0.1-0.5,0.1-1.1,0.1-1.6c0-1.2-0.1-2.3-0.1-2.6c0,0,0-0.1,0-0.1s9.2,1.9,11.1-5c1.4-5-0.2-17.1-4.3-20.3
				c-4.8-3.8-16.8-1.5-19.5,1.7C83.2,212.4,85.1,222.9,85.8,227.2z"/>
			<path class="st15" d="M109.2,217.8c0,0,2.5,7,1.7,7.2c-0.8,0.2-1.8-0.2-1.8-0.2L109.2,217.8z"/>
			<g>
				<path class="st16" d="M106.2,221.5c0,0.5,0.3,0.9,0.7,0.9s0.7-0.4,0.7-0.9c0-0.5-0.3-0.9-0.7-0.9
					C106.4,220.6,106.2,221,106.2,221.5z"/>
				<path class="st16" d="M104.4,217.7c0.2,0.4,1,0.6,1.9,0.2c0.9-0.3,1.5-0.9,1.4-1.4s-1-0.6-1.9-0.3
					C104.9,216.6,104.3,217.2,104.4,217.7z"/>
				<path class="st6" d="M108.3,226.6c0,0-1.5,0.4-3.4,0c0,0,0.3,1.9,1.9,2.1S108.3,226.6,108.3,226.6z"/>
			</g>
			<path class="st16" d="M96,221.5c6.3-2.8,8-8.9,8-8.9s1.7,1.2,5.2,0.1c3.4-1.1,6.2-5.3,4.1-8.6c-2.1-3.3-7.1-0.2-7.1-0.2
				s-3.1-2.8-7.4-3.1c-4.3-0.4-7.6,2.6-7.6,2.6s-6.7,0.4-10.1,4.9s3,19.8,4.8,19.8C92.8,228.1,96,221.5,96,221.5z"/>
			<g>
				<path class="st15" d="M97.2,220.9c0,0-1.6-1.6-4.1-0.9c-2.9,0.8-3.4,5.5,0.3,6.7c1.6,0.5,3.6-0.4,3.6-0.4L97.2,220.9z"/>
				<path class="st16" d="M95.8,224.6c0-1.5-1.1-3.3-2.8-3.2c-0.1,0-0.1,0.1,0,0.1c1.3,0.3,1.9,1.8,2.2,2.9
					c-0.9-0.4-2.1-0.4-2.6,0.6c0,0,0,0.1,0.1,0.1c0.8-0.6,2.2-0.3,2.7,0.4C95.6,225.9,95.8,225.5,95.8,224.6z"/>
			</g>
			<path class="st19" d="M98.2,233.3c0,0-1.8-0.2-3.1-1.4c0,0,0.5,3.1,3.2,4.4C98.3,236.3,98.3,233.8,98.2,233.3z"/>
		</g>
		<path class="st0" d="M84,233.9c6.1-1.7,16.1,2.1,20.3,13.2c5.4,14.4,7.1,52.2,7,55.7c-0.2,4.2-6.1,8.8-27.3,7.8
			c-21.2-1-23.2-6.1-22.5-8.2c0.7-2.1,1.7-20.5,2-23.4C63.8,276,70.4,237.8,84,233.9z"/>
		<g>
			<g>
				<path class="st15" d="M122,275.2c2.4-0.3,25.8-10.8,28.4-12.9s1.7-9.3-4.5-7.6c-6.3,1.7-23.8,7-25.2,7
					C119.2,261.7,119.6,275.5,122,275.2z"/>
				<g>
					<path class="st15" d="M141.3,258.3c0,0,4.9-3,5.4-3.9c0.5-0.9,3.4-8.2,5-8.2c1.6,0.1-0.1,5.6,0.3,5.7
						c0.4,0.1,11.7-3.9,13.3-3.7c0.8,0.1,1.1,0.5,1.2,1c0.1,0.4-0.1,0.8-0.5,1c-1.2,0.6-6.7,2.8-6.8,3.3c-0.1,0.6,1.3,1.5,1.9,3.4
						c0.3,1,1.8,3-0.2,3.8c-4.7,1.7-5.4,1.1-6.4,1.2c-5.6,0.5-9.4,2.8-9.4,2.8L141.3,258.3z"/>
					<path class="st15" d="M161.2,257.8c0,0,0.7-0.4,1.2,0.6s-0.3,1.9-2.2,2.5l-0.9-1.6L161.2,257.8z"/>
					<path class="st15" d="M159,253.6c0,0,1-0.1,1.5,1.1c0.2,0.5,0.2,0.8-0.1,1l-0.6-0.1L159,253.6z"/>
					<path class="st15" d="M160.2,255.6c0,0,0.6-0.2,1.1,0.4c0.5,0.6,0.6,1.5,0.1,1.8l-0.8-0.6L160.2,255.6z"/>
					<g>
						<path class="st16" d="M159.3,253.5c-0.3,0.2-0.6,0.4-0.9,0.5c-0.3,0.1-0.6,0.3-1,0.4c0.2-0.3,0.5-0.5,0.9-0.7
							C158.5,253.6,158.9,253.5,159.3,253.5z"/>
					</g>
					<g>
						<path class="st16" d="M160.5,255.6c-0.3,0.2-0.6,0.4-0.9,0.5c-0.3,0.1-0.6,0.3-1,0.4c0.2-0.3,0.5-0.5,0.9-0.7
							C159.8,255.7,160.2,255.5,160.5,255.6z"/>
					</g>
					<g>
						<path class="st16" d="M161.4,257.6c-0.3,0.2-0.6,0.4-0.9,0.5c-0.3,0.1-0.6,0.3-1,0.4c0.2-0.3,0.5-0.5,0.9-0.7
							C160.7,257.7,161.1,257.6,161.4,257.6z"/>
					</g>
				</g>
			</g>
			<path class="st6" d="M141.3,256l3.5-1.5c0,0,3.9,4.5,4.8,9.2l-3.6,2.6L141.3,256z"/>
			<path class="st0" d="M104.6,240.7c-12.3-5.5-21.8,6.2-12.1,18.7c10.1,13.1,24.1,21,25.6,21.3s29.3-13.5,29.6-13.6
				s-1-9.5-5.8-12.2c0,0-19.1,6.7-20.3,6.7C120.2,261.4,112.1,244.1,104.6,240.7z"/>
		</g>
		<g>
			<path class="st20" d="M95.7,260.7c0,0,3.2,7.4,13.7,14.7"/>
			<path class="st20" d="M61.6,297.4c0,0,2.2-41.6,11.3-53.7"/>
		</g>
	</g>
	<g>
		<polygon class="st21" points="219.8,421.7 421.7,421.7 399,237.4 197.1,237.4 		"/>
		<polygon class="st6" points="375.2,421.7 173.3,421.7 195.9,237.4 397.8,237.4 		"/>
		<polygon class="st9" points="394.7,262.3 192.9,262.3 195.9,237.4 397.8,237.4 		"/>
		<circle class="st13" cx="224.1" cy="249.1" r="3.2"/>
		<g>
			<path class="st22" d="M224.9,301.6h-19.1c-2.5,0-4.3-2-4-4.5l2.3-19.1c0.3-2.5,2.6-4.5,5.1-4.5h19.1c2.5,0,4.3,2,4,4.5L230,297
				C229.7,299.5,227.4,301.6,224.9,301.6z"/>
			<path class="st22" d="M262.3,301.6h-19.1c-2.5,0-4.3-2-4-4.5l2.3-19.1c0.3-2.5,2.6-4.5,5.1-4.5h19.1c2.5,0,4.3,2,4,4.5l-2.3,19.1
				C267,299.5,264.8,301.6,262.3,301.6z"/>
			<path class="st22" d="M302.5,304.5h-26c-3.4,0-5.8-2.8-5.4-6.2l3.2-26c0.4-3.4,3.5-6.2,6.9-6.2h26c3.4,0,5.8,2.8,5.4,6.2l-3.2,26
				C309,301.8,305.9,304.5,302.5,304.5z"/>
			<path class="st22" d="M336.9,301.6h-19.1c-2.5,0-4.3-2-4-4.5l2.3-19.1c0.3-2.5,2.6-4.5,5.1-4.5h19.1c2.5,0,4.3,2,4,4.5l-2.3,19.1
				C341.6,299.5,339.4,301.6,336.9,301.6z"/>
			<path class="st22" d="M374.2,301.6h-19.1c-2.5,0-4.3-2-4-4.5l2.3-19.1c0.3-2.5,2.6-4.5,5.1-4.5h19.1c2.5,0,4.3,2,4,4.5l-2.3,19.1
				C379,299.5,376.7,301.6,374.2,301.6z"/>
			<path class="st22" d="M220.6,337.4h-19.1c-2.5,0-4.3-2-4-4.5l2.3-19.1c0.3-2.5,2.6-4.5,5.1-4.5H224c2.5,0,4.3,2,4,4.5l-2.3,19.1
				C225.3,335.4,223.1,337.4,220.6,337.4z"/>
			<path class="st22" d="M257.9,337.4h-19.1c-2.5,0-4.3-2-4-4.5l2.3-19.1c0.3-2.5,2.6-4.5,5.1-4.5h19.1c2.5,0,4.3,2,4,4.5l-2.3,19.1
				C262.6,335.4,260.4,337.4,257.9,337.4z"/>
			<path class="st22" d="M295.2,337.4h-19.1c-2.5,0-4.3-2-4-4.5l2.3-19.1c0.3-2.5,2.6-4.5,5.1-4.5h19.1c2.5,0,4.3,2,4,4.5l-2.3,19.1
				C299.9,335.4,297.7,337.4,295.2,337.4z"/>
			<path class="st22" d="M332.5,337.4h-19.1c-2.5,0-4.3-2-4-4.5l2.3-19.1c0.3-2.5,2.6-4.5,5.1-4.5h19.1c2.5,0,4.3,2,4,4.5l-2.3,19.1
				C337.2,335.4,335,337.4,332.5,337.4z"/>
			<path class="st22" d="M369.8,337.4h-19.1c-2.5,0-4.3-2-4-4.5l2.3-19.1c0.3-2.5,2.6-4.5,5.1-4.5h19.1c2.5,0,4.3,2,4,4.5l-2.3,19.1
				C374.5,335.4,372.3,337.4,369.8,337.4z"/>
			<path class="st22" d="M216.1,373.2h-19.1c-2.5,0-4.3-2-4-4.5l2.3-19.1c0.3-2.5,2.6-4.5,5.1-4.5h19.1c2.5,0,4.3,2,4,4.5l-2.3,19.1
				C220.9,371.2,218.6,373.2,216.1,373.2z"/>
			<path class="st22" d="M253.5,373.2h-19.1c-2.5,0-4.3-2-4-4.5l2.3-19.1c0.3-2.5,2.6-4.5,5.1-4.5h19.1c2.5,0,4.3,2,4,4.5l-2.3,19.1
				C258.2,371.2,255.9,373.2,253.5,373.2z"/>
			<path class="st22" d="M290.8,373.2h-19.1c-2.5,0-4.3-2-4-4.5l2.3-19.1c0.3-2.5,2.6-4.5,5.1-4.5h19.1c2.5,0,4.3,2,4,4.5l-2.3,19.1
				C295.5,371.2,293.3,373.2,290.8,373.2z"/>
			<path class="st22" d="M328.1,373.2H309c-2.5,0-4.3-2-4-4.5l2.3-19.1c0.3-2.5,2.6-4.5,5.1-4.5h19.1c2.5,0,4.3,2,4,4.5l-2.3,19.1
				C332.8,371.2,330.6,373.2,328.1,373.2z"/>
			<path class="st22" d="M365.4,373.2h-19.1c-2.5,0-4.3-2-4-4.5l2.3-19.1c0.3-2.5,2.6-4.5,5.1-4.5h19.1c2.5,0,4.3,2,4,4.5l-2.3,19.1
				C370.1,371.2,367.9,373.2,365.4,373.2z"/>
			<line class="st23" x1="193.1" y1="382.4" x2="331.6" y2="382.4"/>
			<line class="st23" x1="191.7" y1="390.6" x2="330.1" y2="390.6"/>
			<line class="st23" x1="190.3" y1="398.8" x2="252.1" y2="398.8"/>
			<polyline class="st24" points="285.5,282.7 291.3,292.5 308.9,266.8 			"/>
		</g>
		<path class="st25" d="M224.1,249.3c-5.5,0-10-5.3-10-11.9c0-6.5,4.5-11.9,10-11.9c5.5,0,10,5.3,10,11.9"/>
		
			<ellipse transform="matrix(0.1602 -0.9871 0.9871 0.1602 -29.0302 464.1391)" class="st13" cx="258.2" cy="249.1" rx="3.2" ry="3.2"/>
		<path class="st25" d="M258.2,249.3c-5.5,0-10-5.3-10-11.9c0-6.5,4.5-11.9,10-11.9c5.5,0,10,5.3,10,11.9"/>
		<circle class="st13" cx="292.4" cy="249.1" r="3.2"/>
		<path class="st25" d="M292.4,249.3c-5.5,0-10-5.3-10-11.9c0-6.5,4.5-11.9,10-11.9s10,5.3,10,11.9"/>
		<circle class="st13" cx="326.5" cy="249.1" r="3.2"/>
		<path class="st25" d="M326.5,249.3c-5.5,0-10-5.3-10-11.9c0-6.5,4.5-11.9,10-11.9c5.5,0,10,5.3,10,11.9"/>
		<circle class="st13" cx="360.6" cy="249.1" r="3.2"/>
		<path class="st25" d="M360.6,249.3c-5.5,0-10-5.3-10-11.9c0-6.5,4.5-11.9,10-11.9s10,5.3,10,11.9"/>
	</g>
	<g>
		<g>
			<g>
				<g>
					<g>
						<path class="st26" d="M454.1,393.2l-12.2,11.2c0,0-7,13.8-4.4,16.7s23.4-18.5,23.9-20C461.7,399.6,454.1,393.2,454.1,393.2z"
							/>
						<path class="st6" d="M461.1,400.7c-3.5,4.4-7.4,8.2-11.6,11.9c-3.8,3.3-7.5,6.5-12.3,8.4c-1.1,0.5-0.4,2.3,0.7,2
							c4.9-1.7,8.8-5.1,12.6-8.5c4.5-3.9,8.6-8,12.3-12.6C463.8,400.7,461.9,399.6,461.1,400.7z"/>
						<g>
							<path class="st6" d="M444.6,405.1c-1.6-0.8-5-0.6-5.2,1.7c0,0.3,0.3,0.5,0.5,0.5c0.7-0.2,1.4-0.6,2.1-0.7s1.4,0.1,2.1,0.1
								C445,406.8,445.4,405.5,444.6,405.1z"/>
							<path class="st6" d="M443.8,407.5c-1.6-0.8-5-0.6-5.2,1.7c0,0.3,0.3,0.5,0.6,0.5c0.7-0.2,1.4-0.6,2.1-0.7s1.4,0.1,2.1,0.1
								C444.1,409.2,444.5,407.9,443.8,407.5z"/>
							<path class="st6" d="M442.9,409.9c-1.6-0.8-5-0.6-5.2,1.7c0,0.3,0.3,0.5,0.6,0.5c0.7-0.2,1.4-0.6,2.1-0.7s1.4,0.1,2.1,0.1
								C443.2,411.6,443.7,410.3,442.9,409.9z"/>
						</g>
					</g>
					<path class="st27" d="M427.1,308.7c0,0,0.2,10.9-0.8,26.3c-0.6,10.4-1.5,21.6,0.2,26c1.7,4.5,27.6,28.5,26.8,33.1
						c-0.8,4.5-10.6,11.5-13,11.1c-2.4-0.4-28.1-25-32.9-30.6c-4.8-5.6-11.3-65.4-11.3-65.4L427.1,308.7z"/>
					<path class="st16" d="M396.1,309.2l31-0.5c0,0,0.4,7.9-0.4,20.7c-0.9,14.7-0.3,29.9,0.8,31.5s29.2,31.5,29.3,33.8
						c0.1,2.3-13.3,13.8-16.4,13.2s-31.2-27.6-36-33.5C399.6,368.4,396.1,309.2,396.1,309.2z"/>
				</g>
			</g>
			<g>
				<g>
					<g>
						<path class="st26" d="M439.1,410.6l-16.5,1c0,0-14.2,6.3-14,10.1c0.2,3.9,29.9,0.5,31.1-0.4
							C441,420.4,439.1,410.6,439.1,410.6z"/>
						<path class="st6" d="M439.8,420.8c-5.5,1.2-10.9,1.7-16.5,1.9c-5,0.2-10,0.3-14.8-1.2c-1.1-0.3-1.8,1.5-0.7,2
							c4.9,1.7,10.1,1.6,15.2,1.4c5.9-0.2,11.7-0.8,17.5-2C441.9,422.5,441.1,420.5,439.8,420.8z"/>
						<g>
							<path class="st6" d="M424.2,413.9c-0.7-1.6-3.5-3.6-5.1-2c-0.2,0.2-0.1,0.6,0.1,0.7c0.7,0.3,1.4,0.4,2.1,0.8
								c0.6,0.4,1,0.9,1.5,1.4C423.4,415.4,424.6,414.7,424.2,413.9z"/>
							<path class="st6" d="M422,415.2c-0.7-1.6-3.5-3.6-5.1-2c-0.2,0.2-0.1,0.6,0.1,0.7c0.7,0.3,1.4,0.4,2.1,0.8
								c0.6,0.4,1,0.9,1.5,1.4C421.2,416.7,422.4,416,422,415.2z"/>
							<path class="st6" d="M419.9,416.5c-0.7-1.6-3.5-3.6-5.1-2c-0.2,0.2-0.1,0.6,0.1,0.7c0.7,0.3,1.4,0.4,2.1,0.8
								c0.6,0.4,1,0.9,1.5,1.4C419.1,418,420.2,417.3,419.9,416.5z"/>
						</g>
					</g>
					<path class="st27" d="M441.9,312.3c0,0,6,15.6,0.2,30c-3.9,9.6-2.6,21.4-4,25.9s3.4,39.6-0.1,42.6s-15.5,2.2-17.1,0.4
						c-1.6-1.8-6-37.1-6.2-44.5s1.2-55.8,1.2-55.8L441.9,312.3z"/>
					<path class="st16" d="M413.4,308.7h29.9c0,0,4.9,17.2,0.7,31.3s-5.1,26.8-5.2,28.8c-0.1,2,2.8,42.9,1.4,44.7
						c-1.4,1.9-19.1,2.3-21.1-0.1s-6.8-41.1-6.7-48.7C412.5,357,413.4,308.7,413.4,308.7z"/>
				</g>
			</g>
			<path class="st28" d="M405.1,321.3l8,11.1c0,0-2.9,33.6,1.4,54.5"/>
			<path class="st28" d="M437.5,307.1c0,0,6.5,20.1,1,33.9c-5.5,13.8-2.9,73.8-2.9,73.8"/>
			<path class="st28" d="M423.1,308.7c0,0,2.9,11.6,17.4,13.5"/>
			<line class="st28" x1="439" y1="374.1" x2="440.4" y2="408"/>
		</g>
		<g>
			<g>
				<path class="st29" d="M376.7,299c0,0-5.1,1.9-6.2,3.1c-1.1,1.2-5.7,2.9-8.2,2.7c-2.4-0.1-9.1,1.4-10,0.3c-0.9-1,4.8-1.3,4.8-1.3
					s-5.2,0.6-5.7-0.1c-0.5-0.7,0.2-1.2,0.2-1.2s-0.9,0-0.9-0.7c0-0.7,0.8-0.8,0.8-0.8s-0.7-0.7-0.4-1.4c0.4-0.7,5.6-1,7.7-1.8
					s1.8-1.2,0.6-2c-2.1-1.3-3-2.1-2.4-2.7c0.6-0.7,4.8,1,7.1,1.4c2.3,0.4,4.5,0.6,7.4-2.9L376.7,299z"/>
				<path class="st6" d="M368.9,293.6l2-1.9c0,0,4,8.2,4.1,8.5c0,0.3-3.1,1.8-3.1,1.8S368.9,294.3,368.9,293.6z"/>
				<path class="st17" d="M406.7,254l13,20.3c0,0-15.5,10.5-20.4,13.6s-25,13.7-25,13.7l-4.8-10.9c0,0,20.6-14.2,22.9-16
					C394.6,273,404.6,255.9,406.7,254z"/>
				<g>
					<path class="st16" d="M351.8,302.7c2.1-0.2,4.1-0.4,6.2-0.7c0,0.1,0,0.1,0.1,0.2c-2,0.5-4.2,0.8-6.3,0.6
						C351.7,302.8,351.6,302.7,351.8,302.7z"/>
					<path class="st16" d="M353.4,304c2.1-0.2,3.4-0.4,5.5-0.6c0,0.1,0,0.1,0.1,0.2c-2,0.5-3.5,0.7-5.5,0.6
						C353.4,304.2,353.3,304.1,353.4,304z"/>
					<path class="st16" d="M351.5,301c2-0.2,4-0.4,6-0.6c0,0.1,0.1,0.1,0.1,0.2c-2,0.5-4.1,0.7-6.1,0.6
						C351.4,301.1,351.3,301,351.5,301z"/>
				</g>
				<path class="st16" d="M365.9,301.4c-3.2,0.2-5.1-2.8-5.1-2.8L365.9,301.4z"/>
			</g>
			<g>
				<line class="st30" x1="324.8" y1="291" x2="355.5" y2="300.4"/>
				<ellipse class="st31" cx="291.5" cy="280.9" rx="34.9" ry="34.9"/>
				
					<ellipse transform="matrix(0.9918 -0.1278 0.1278 0.9918 -33.5 39.556)" class="st32" cx="291.5" cy="280.8" rx="32.1" ry="32.1"/>
				
					<ellipse transform="matrix(0.9918 -0.1278 0.1278 0.9918 -33.5 39.556)" class="st33" cx="291.5" cy="280.8" rx="32.1" ry="32.1"/>
				<path class="st0" d="M394.1,312.5L394.1,312.5c-0.8,2.5-3.5,4-6,3.2l-41-12.5c-2.5-0.8-4-3.5-3.2-6l0,0c0.8-2.5,3.5-4,6-3.2
					l41,12.5C393.4,307.3,394.9,310,394.1,312.5z"/>
			</g>
			<path class="st6" d="M427.7,244.6c-6.2-2.2-16.9,1.1-22,12.4c-6.6,14.6-8.3,48-10.3,50.9c-1.5,2.2,3.3,8.4,14.3,11.5
				c1.3,0.4,1.8-6.6,2.2-6.7c0.7-0.2,1.9,7.3,2.6,7.4c2.5,0.4,6.1,0.7,9.2,0.7c22.1,0.3,25.4-10.7,24.8-12.9s-4.2-12.3-4.3-15.4
				C444,289.4,441.6,249.5,427.7,244.6z"/>
			<path class="st34" d="M408.9,258c0,0,1.1,5.7,3.3,7.6l2.7-6.4c0,0,4,3.6,6.2,7.6c0,0,6.3-8.9,7-10.9c0.6-2-1-9.1-1-9.1l-8.7,11
				l-3.5-0.8c0,0-2.4-8-2.3-8c0.1,0-3.7,5-3.7,5V258z"/>
			<path class="st8" d="M414.9,257c0,0-3,2.9-3,6.9l1.8,3.2l-5.3,33l4.5,6.8l3.9-7.6l-0.8-31.9l4-5C420,262.2,417.4,258,414.9,257z"
				/>
			<path class="st17" d="M421.8,245.3c-5.7,0-11.5,9.1-13.6,14.7c-2.1,5.6-7.2,69.1-7.2,70.2c0,1.1-9-4-9.9-6.7
				c-0.9-2.8,10.5-57.8,13-64.6c2-5.7,9.1-14.7,18.3-14.7s14.5,7.2,17.1,13.9c2.5,6.6,3.9,30.1,6.2,37.4s6.7,24.1,7.5,26.6
				c0.9,2.5-9.6,11.8-29,11c-3.2-0.1,3.1-62.2,2.6-72.1C426.2,251,426.4,245.3,421.8,245.3z"/>
			<g>
				<path class="st16" d="M423.8,237.7c0,0,4.9-2.5,4.1-5.9c0,0,2.2-1.8,1.9-5.6c-0.3-3.9-3-3.2-3-3.2s2.5-2.5,1.1-5.2s-5-2.7-5-2.7
					s2.1-4.3-3.5-5.4c-5.6-1-6.1,1.7-6.1,1.7s-1.4-4.4-5.6-4c-4.2,0.4-3.9,4.5-3.9,4.5s-4.3-2.4-7.2,0.1s0.3,8.1,0.3,8.1
					s-3.3,2.9-0.6,5.6c0,0-1.7,3.5,1.5,4.6c0,0-1.3,4.9,3.9,4.8L423.8,237.7z"/>
				<path class="st29" d="M400,241.8c2.8,6.2,10.6,3.9,12,3.4c0.1-0.1,0.2-0.1,0.2-0.1s0.1,1.3,0.3,2.7c0,0.4,0.1,0.7,0.2,1.1
					c0,0.2,0.1,0.5,0.2,0.7c0.2,0.9-1.4,8.3,3.5,7.6c4.5-0.7,7.8-7.4,7.9-8.6c0.3-2.1-0.3-9.1-0.3-11.8c0-4.5,0.3-15.7-2.5-18.1
					c-3.2-2.8-16-3.3-20.3,1.4C397.4,224.3,397.8,236.9,400,241.8z"/>
				<path class="st16" d="M398.7,226.6c0,0,4.7-1.2,5.1-4.6c0,0,1.3,2.7,4.7,2.3c3.4-0.4,4.1-4.3,4.1-4.3s1.2,3.6,4.8,2.6
					c0,0-1.7,3.5,0.9,4.9c0,0-1.3,4,2.1,4l3.5-0.2c0,0,3.9-10.9-3.8-14c-7.7-3.1-17.8-1.4-20.4,1.7
					C397.2,222.2,398.7,226.6,398.7,226.6z"/>
				<g>
					<path class="st16" d="M401.8,233c0.1,0.5-0.2,1-0.6,1c-0.4,0.1-0.8-0.3-0.8-0.8c-0.1-0.5,0.2-1,0.6-1S401.7,232.5,401.8,233z"
						/>
					<path class="st16" d="M410.6,232.7c0.1,0.5-0.2,1-0.6,1c-0.4,0.1-0.8-0.3-0.8-0.8c-0.1-0.5,0.2-1,0.6-1
						C410.2,231.8,410.6,232.2,410.6,232.7z"/>
					<path class="st16" d="M402.4,227.9c0.1,0.5-0.6,1-1.6,1.2c-1,0.2-1.9,0-2-0.5c-0.1-0.5,0.6-1,1.6-1.2
						C401.4,227.2,402.3,227.5,402.4,227.9z"/>
					<path class="st16" d="M411.8,228.4c-0.1,0.5-1,0.7-2,0.6c-1-0.2-1.7-0.7-1.7-1.2c0.1-0.5,1-0.7,2-0.6
						C411.1,227.4,411.9,227.9,411.8,228.4z"/>
					<g>
						<path class="st16" d="M405.2,235.7c-0.2,0.2-0.9,0.6-1.2,0.3c-0.4-0.4,0-5.8,0-7.1c0-0.1-0.2-0.2-0.2,0
							c-0.4,2.1-1,7.8,0.1,7.8c0.6,0,1.2-0.3,1.6-0.7C405.6,235.8,405.4,235.6,405.2,235.7z"/>
					</g>
					<path class="st6" d="M402,238.6c0,0,2.7,0.6,5.2-0.6c0,0,0,2.4-2,3C403.2,241.7,402,238.6,402,238.6z"/>
				</g>
				<g>
					<path class="st29" d="M420.5,231.6c0,0,1.4-1.9,4-1.6c3.1,0.4,4.4,5.1,0.8,6.9c-1.6,0.8-3.7,0.1-3.7,0.1L420.5,231.6z"/>
					<path class="st16" d="M422.5,235.1c-0.2-1.5,0.6-3.5,2.4-3.7c0.1,0,0.1,0.1,0,0.1c-1.3,0.5-1.7,2.2-1.8,3.3
						c0.9-0.6,2.1-0.8,2.8,0.2c0,0,0,0.1,0,0.1c-0.9-0.5-2.3,0-2.7,0.8C422.9,236.4,422.6,236,422.5,235.1z"/>
				</g>
				<path class="st35" d="M412.2,245.2c0,0,2.5-0.3,4.6-2c0,0-2,3.9-4,5.8C412.7,249,412.3,246.5,412.2,245.2z"/>
			</g>
			<g>
				<g>
					<path class="st6" d="M424.3,244.2c0,0,3.4,1.7,3.9,3.1c1.7,5.4-7,17-7,17s-3-6.1-6.2-7.3C414.9,257,420.6,255.3,424.3,244.2z"
						/>
					<path class="st6" d="M412.6,247.8c0,0-0.4,5.6,2.2,9.2c0,0-2.8,2.7-3,6.9c0,0-3-6-2.5-11.1
						C409.6,250.9,412.6,247.8,412.6,247.8z"/>
				</g>
			</g>
			<g>
				<path class="st36" d="M401.1,270.7c0,0-4.9,24.4-8.8,44.4"/>
				<path class="st16" d="M429,291.5c0,0.5-0.4,1-1,1c-0.5,0-1-0.4-1-1c0-0.5,0.4-1,1-1S429,290.9,429,291.5z"/>
				<path class="st16" d="M429,302.5c0,0.5-0.4,1-1,1c-0.5,0-1-0.4-1-1c0-0.5,0.4-1,1-1S429,302,429,302.5z"/>
				<path class="st16" d="M429,313.6c0,0.5-0.4,1-1,1c-0.5,0-1-0.4-1-1c0-0.5,0.4-1,1-1S429,313,429,313.6z"/>
				<path class="st16" d="M429,324.6c0,0.5-0.4,1-1,1c-0.5,0-1-0.4-1-1c0-0.5,0.4-1,1-1C428.6,323.7,429,324.1,429,324.6z"/>
			</g>
			<line class="st37" x1="431.5" y1="277" x2="431.5" y2="277"/>
			<path class="st36" d="M431.8,273.9c0,0,3.9,25.7,12.9,41.3"/>
			<g>
				<path class="st29" d="M401.4,300.8c0,0-5.3,5.6-6.8,6.7c-1.3,0.9-4.9,2.3-7.2,3.3c-2.2,0.9-6,4.2-7.2,3.6
					c-1.3-0.5,2.1-2.2,2.1-2.2s-3.3,2.2-4,1.8s-0.5-1-0.5-1s-1.2,0.6-1.6,0s0-1,0-1s-1.8,0-1.8-0.7s5.2-3.6,6.7-5.1
					c1.5-1.5,1.5-2.1,0-2.3c-2.4-0.2-3.8-1.1-3.5-2c0.2-0.9,4.7-0.7,7.1-0.5c2.3,0.2,6.4-1.8,8.5-4.6L401.4,300.8z"/>
				<g>
					<path class="st16" d="M378.8,312.5c1.7-1.1,3.5-2.2,5.3-3.3c0.1,0,0.1,0.1,0.1,0.1c-1.6,1.3-3.4,2.5-5.4,3.3
						C378.8,312.7,378.7,312.5,378.8,312.5z"/>
					<path class="st16" d="M380.9,313c1.7-1.1,2.9-1.8,4.7-3c0.1,0,0.1,0.1,0.1,0.1c-1.6,1.3-2.8,2.2-4.7,3
						C380.9,313.2,380.8,313,380.9,313z"/>
					<path class="st16" d="M377.8,311.1c1.7-1.1,3.4-2.1,5.1-3.2c0.1,0,0.1,0.1,0.2,0.1c-1.6,1.3-3.3,2.4-5.2,3.2
						C377.7,311.3,377.7,311.2,377.8,311.1z"/>
				</g>
			</g>
			<path class="st17" d="M434.6,256.7c-4.9-3.8-12.3,3.3-16,10s-7.7,13.1-7.7,13.1L390,297.5c0,0,1.5,4.4,7.9,9.3l25.2-16.3
				C423.1,290.5,444.8,264.7,434.6,256.7z"/>
			<g>
				<line class="st36" x1="390" y1="297.5" x2="405" y2="284.7"/>
				<polyline class="st36" points="396.7,305.8 397.9,306.8 403.2,303.3 				"/>
			</g>
			<path class="st36" d="M425.4,287.6c0,0,8.2-10.5,10.7-18.4"/>
		</g>
	</g>
	<g>
		<ellipse class="st6" cx="413.7" cy="169.4" rx="8.4" ry="10"/>
		<path class="st6" d="M488,304.3c-3.1,0.5-5.4,3.2-5.4,6.5c0-3.2-2.3-5.9-5.4-6.5c3.1-0.5,5.4-3.2,5.4-6.5
			C482.6,301,485,303.7,488,304.3z"/>
		<path class="st6" d="M193,115.7c-3.1,0.6-5.4,3.2-5.4,6.5c0-3.2-2.3-5.9-5.4-6.5c3.1-0.6,5.4-3.2,5.4-6.5
			C187.5,112.5,189.9,115.2,193,115.7z"/>
		<path class="st6" d="M38.7,167.5c-2.2,0.4-3.8,2.3-3.8,4.6c0-2.3-1.7-4.2-3.8-4.6c2.2-0.4,3.8-2.3,3.8-4.6
			C34.8,165.2,36.5,167.1,38.7,167.5z"/>
		<ellipse class="st6" cx="461.3" cy="133.1" rx="3.8" ry="4.6"/>
		<ellipse class="st6" cx="425.7" cy="42.6" rx="3.8" ry="4.6"/>
		<ellipse class="st6" cx="59.9" cy="220.6" rx="8.4" ry="10"/>
		<path class="st38" d="M85.1,115.7c0,3.9-3.1,7-7,7s-7-3.1-7-7s3.1-7,7-7S85.1,111.9,85.1,115.7z"/>
		<path class="st38" d="M324.4,133.1c0,3.9-3.1,7-7,7s-7-3.1-7-7s3.1-7,7-7C321.3,126.1,324.4,129.3,324.4,133.1z"/>
		<path class="st38" d="M42.1,333.4c0,3.9-3.1,7-7,7s-7-3.1-7-7s3.1-7,7-7C39,326.4,42.1,329.6,42.1,333.4z"/>
		<g>
			<line class="st38" x1="297.2" y1="185" x2="297.2" y2="195.8"/>
			<line class="st38" x1="302.6" y1="190.4" x2="291.8" y2="190.4"/>
		</g>
		<g>
			<line class="st38" x1="85.1" y1="42.6" x2="85.1" y2="53.3"/>
			<line class="st38" x1="90.4" y1="47.9" x2="79.7" y2="47.9"/>
		</g>
		<g>
			<line class="st38" x1="256.4" y1="49.5" x2="263.9" y2="57.1"/>
			<line class="st38" x1="263.9" y1="49.5" x2="256.4" y2="57.1"/>
		</g>
		<g>
			<line class="st38" x1="473.4" y1="345.2" x2="481" y2="352.7"/>
			<line class="st38" x1="481" y1="345.2" x2="473.4" y2="352.7"/>
		</g>
	</g>
	<g>
		<g>
			<g>
				<rect x="205.5" y="378.8" class="st9" width="73.2" height="14.9"/>
				<g>
					<rect x="212.8" y="380.4" class="st39" width="2.7" height="11.6"/>
					<rect x="222.1" y="380.4" class="st39" width="2.7" height="11.6"/>
					<rect x="231.4" y="380.4" class="st39" width="2.7" height="11.6"/>
					<rect x="240.8" y="380.4" class="st39" width="2.7" height="11.6"/>
					<rect x="250.1" y="380.4" class="st39" width="2.7" height="11.6"/>
					<rect x="259.4" y="380.4" class="st39" width="2.7" height="11.6"/>
					<rect x="268.7" y="380.4" class="st39" width="2.7" height="11.6"/>
				</g>
			</g>
			<g>
				<g>
					<rect x="200.3" y="393.6" class="st39" width="73.2" height="14.9"/>
					<g>
						<rect x="207.6" y="395.2" class="st9" width="2.7" height="11.6"/>
						<rect x="216.9" y="395.2" class="st9" width="2.7" height="11.6"/>
						<rect x="226.2" y="395.2" class="st9" width="2.7" height="11.6"/>
						<rect x="235.5" y="395.2" class="st9" width="2.7" height="11.6"/>
						<rect x="244.8" y="395.2" class="st9" width="2.7" height="11.6"/>
						<rect x="254.1" y="395.2" class="st9" width="2.7" height="11.6"/>
						<rect x="263.5" y="395.2" class="st9" width="2.7" height="11.6"/>
					</g>
				</g>
				<g>
					<rect x="203.8" y="408.5" class="st9" width="73.2" height="14.9"/>
					<g>
						<rect x="211.1" y="409.8" class="st39" width="2.7" height="12.1"/>
						<rect x="220.4" y="409.8" class="st39" width="2.7" height="12.1"/>
						<rect x="229.7" y="409.8" class="st39" width="2.7" height="12.1"/>
						<rect x="239" y="409.8" class="st39" width="2.7" height="12.1"/>
						<rect x="248.3" y="409.8" class="st39" width="2.7" height="12.1"/>
						<rect x="257.6" y="409.8" class="st39" width="2.7" height="12.1"/>
						<rect x="267" y="409.8" class="st39" width="2.7" height="12.1"/>
					</g>
				</g>
			</g>
		</g>
		<g>
			<g>
				<path class="st40" d="M270.3,353.3c0,14.3-11.6,25.8-25.8,25.8c-14.3,0-25.8-11.6-25.8-25.8s11.6-25.8,25.8-25.8
					C258.8,327.5,270.3,339.1,270.3,353.3z"/>
				<path class="st39" d="M268.2,353.3c0,14.3-11.6,25.8-25.8,25.8c-14.3,0-25.8-11.6-25.8-25.8s11.6-25.8,25.8-25.8
					C256.6,327.5,268.2,339.1,268.2,353.3z"/>
				<g>
					<path class="st9" d="M263,353.3c0,11.4-9.2,20.6-20.6,20.6s-20.6-9.2-20.6-20.6c0-11.4,9.2-20.6,20.6-20.6
						C253.7,332.7,263,341.9,263,353.3z"/>
					<g>
						<g>
							<defs>
								<path id="SVGID_1_" d="M263,353.3c0,11.4-9.2,20.6-20.6,20.6s-20.6-9.2-20.6-20.6c0-11.4,9.2-20.6,20.6-20.6
									C253.7,332.7,263,341.9,263,353.3z"/>
							</defs>
							<clipPath id="SVGID_2_">
								<use xlink:href="#SVGID_1_"  style="overflow:visible;"/>
							</clipPath>
							<g class="st41">
								
									<rect x="189.3" y="327.3" transform="matrix(0.7071 -0.7071 0.7071 0.7071 -160.179 272.0347)" class="st42" width="117.9" height="4"/>
								
									<rect x="186.7" y="345.4" transform="matrix(0.7071 -0.7071 0.7071 0.7071 -175.3691 276.179)" class="st42" width="117.9" height="8.7"/>
								
									<rect x="192.6" y="358.8" transform="matrix(0.7071 -0.7071 0.7071 0.7071 -181.061 283.4405)" class="st42" width="117.9" height="3"/>
							</g>
						</g>
					</g>
				</g>
			</g>
			<text transform="matrix(1 0 0 1 234.3695 360.5518)" class="st6 st43 st44 st45">$</text>
		</g>
	</g>
</g>
</svg>
